<?xml version="1.0" encoding="iso-8859-1"?>
<!-- Generator: Adobe Illustrator 19.0.0, SVG Export Plug-In . SVG Version: 6.00 Build 0)  -->
<svg xmlns="http://www.w3.org/2000/svg" xmlns:xlink="http://www.w3.org/1999/xlink" version="1.1" id="Layer_1" x="0px" y="0px" viewBox="0 0 512.003 512.003" style="enable-background:new 0 0 512.003 512.003;" xml:space="preserve" width="512px" height="512px">
<g>
	<g>
		<path d="M508.564,162.835c-69-63.74-158.708-98.833-252.563-98.833S72.439,99.095,3.439,162.835    c-4.333,3.99-4.604,10.729-0.625,15.052l245.333,266.667c2.021,2.198,4.875,3.448,7.854,3.448c2.979,0,5.833-1.25,7.854-3.448    l245.333-266.667C513.168,173.564,512.897,166.824,508.564,162.835z M256.001,421.585L25.835,171.397    c63.917-55.573,145.25-86.063,230.167-86.063s166.25,30.49,230.167,86.063L256.001,421.585z" fill="#999999"/>
	</g>
</g>
<g>
</g>
<g>
</g>
<g>
</g>
<g>
</g>
<g>
</g>
<g>
</g>
<g>
</g>
<g>
</g>
<g>
</g>
<g>
</g>
<g>
</g>
<g>
</g>
<g>
</g>
<g>
</g>
<g>
</g>
</svg>
